<svg class="ionicons" aria-hidden="true" style="position: absolute; width: 0; height: 0; overflow: hidden;" version="1.1" xmlns="http://www.w3.org/2000/svg" xmlns:xlink="http://www.w3.org/1999/xlink">
    <defs>
    <symbol id="icon-arrow-right" xmlns="http://www.w3.org/2000/svg" class="ionicon" viewBox="0 0 512 512">
    <title>Chevron Forward</title>
    <path fill="none" stroke="currentColor" stroke-linecap="round" stroke-linejoin="round" stroke-width="48" d="M184 112l144 144-144 144"/>
    </symbol>
    <symbol id="icon-arrow-left" xmlns="http://www.w3.org/2000/svg" class="ionicon" viewBox="0 0 512 512">
    <title>Chevron Back</title>
    <path fill="none" stroke="currentColor" stroke-linecap="round" stroke-linejoin="round" stroke-width="48" d="M328 112L184 256l144 144"/>
    </symbol>
    <symbol id="icon-double-check" xmlns="http://www.w3.org/2000/svg" class="ionicon" viewBox="0 0 512 512">
    <title>Checkmark Done</title>
    <path fill="none" stroke="currentColor" stroke-linecap="round" stroke-linejoin="round" stroke-width="32" d="M464 128L240 384l-96-96M144 384l-96-96M368 128L232 284"/>
    </symbol>
    <symbol id="icon-caret-down" xmlns="http://www.w3.org/2000/svg" class="ionicon" viewBox="0 0 512 512">
    <title>Caret Down</title>
    <path d="M98 190.06l139.78 163.12a24 24 0 0036.44 0L414 190.06c13.34-15.57 2.28-39.62-18.22-39.62h-279.6c-20.5 0-31.56 24.05-18.18 39.62z"/>
    </symbol>
    <symbol id="icon-caret-up" xmlns="http://www.w3.org/2000/svg" class="ionicon" viewBox="0 0 512 512">
    <title>Caret Up</title>
    <path d="M414 321.94L274.22 158.82a24 24 0 00-36.44 0L98 321.94c-13.34 15.57-2.28 39.62 18.22 39.62h279.6c20.5 0 31.56-24.05 18.18-39.62z"/>
    </symbol>
    <symbol id="icon-heart-outline" xmlns="http://www.w3.org/2000/svg" class="ionicon" viewBox="0 0 512 512">
    <title>Heart</title>
    <path d="M352.92 80C288 80 256 144 256 144s-32-64-96.92-64c-52.76 0-94.54 44.14-95.08 96.81-1.1 109.33 86.73 187.08 183 252.42a16 16 0 0018 0c96.26-65.34 184.09-143.09 183-252.42-.54-52.67-42.32-96.81-95.08-96.81z" fill="none" stroke="currentColor" stroke-linecap="round" stroke-linejoin="round" stroke-width="32"/>
    </symbol>
    <symbol id="icon-heart-filled" xmlns="http://www.w3.org/2000/svg" class="ionicon" viewBox="0 0 512 512">
    <title>Heart</title>
    <path d="M256 448a32 32 0 01-18-5.57c-78.59-53.35-112.62-89.93-131.39-112.8-40-48.75-59.15-98.8-58.61-153C48.63 114.52 98.46 64 159.08 64c44.08 0 74.61 24.83 92.39 45.51a6 6 0 009.06 0C278.31 88.81 308.84 64 352.92 64c60.62 0 110.45 50.52 111.08 112.64.54 54.21-18.63 104.26-58.61 153-18.77 22.87-52.8 59.45-131.39 112.8a32 32 0 01-18 5.56z"/>
    </symbol>
    <symbol id="icon-search" xmlns="http://www.w3.org/2000/svg" class="ionicon" viewBox="0 0 512 512">
    <title>Search</title>
    <path d="M221.09 64a157.09 157.09 0 10157.09 157.09A157.1 157.1 0 00221.09 64z" fill="none" stroke="currentColor" stroke-miterlimit="10" stroke-width="32"/><path fill="none" stroke="currentColor" stroke-linecap="round" stroke-miterlimit="10" stroke-width="32" d="M338.29 338.29L448 448"/>
    </symbol>
    <symbol id="icon-close" xmlns="http://www.w3.org/2000/svg" class="ionicon" viewBox="0 0 512 512">
    <title>Close</title>
    <path fill="none" stroke="currentColor" stroke-linecap="round" stroke-linejoin="round" stroke-width="32" d="M368 368L144 144M368 144L144 368"/>
    </symbol>
    </defs>
</svg>